<svg xmlns="http://www.w3.org/2000/svg" viewBox="0 0 32 32">
  <rect width="32" height="32" rx="6" fill="#5c1a1a"/>
  <!-- mdi:book-open-page-variant -->
  <g transform="translate(4,5) scale(0.92)">
    <path d="M19 2L14 6.5V17.5L19 13V2M6.5 5C4.55 5 2.45 5.4 1 6.5V21.16C1 21.41 1.25 21.66 1.5 21.66C1.6 21.66 1.65 21.59 1.75 21.59C3.1 20.94 5.05 20.5 6.5 20.5C8.45 20.5 10.55 20.9 12 22C13.35 21.15 15.8 20.5 17.5 20.5C19.15 20.5 20.85 20.81 22.25 21.56C22.35 21.61 22.4 21.59 22.5 21.59C22.75 21.59 23 21.34 23 21.09V6.5C22.4 6.05 21.75 5.75 21 5.5V7.5L17.5 5.5L14 7.5V5.5C13.35 5.15 12.65 4.92 12 4.78V17.5L5.5 13.85C4.15 13.5 2.72 13.39 1.5 13.62V7.37C2.97 6.16 4.95 5.47 6.5 5Z" fill="#f5e6d4"/>
  </g>
</svg>
